<?xml version="1.0" standalone="no"?>
<!DOCTYPE svg PUBLIC "-//W3C//DTD SVG 20010904//EN"
 "http://www.w3.org/TR/2001/REC-SVG-20010904/DTD/svg10.dtd">
<svg version="1.0" xmlns="http://www.w3.org/2000/svg"
 width="384.000000pt" height="384.000000pt" viewBox="0 0 384.000000 384.000000"
 preserveAspectRatio="xMidYMid meet">

<g transform="translate(0.000000,384.000000) scale(0.100000,-0.100000)"
fill="#000000" stroke="none">
<path d="M0 1920 l0 -1920 1920 0 1920 0 0 1920 0 1920 -1920 0 -1920 0 0
-1920z m3208 633 c7 -159 17 -369 22 -468 22 -417 30 -649 23 -655 -4 -4 -174
-15 -378 -24 -203 -9 -418 -19 -478 -23 l-107 -6 -6 -39 c-5 -28 -12 -39 -28
-42 -11 -3 -334 -19 -716 -36 -382 -17 -739 -34 -792 -37 l-98 -6 0 44 c0 24
-9 229 -20 454 -31 649 -43 916 -39 919 2 2 175 11 384 20 209 10 508 24 665
32 157 7 407 18 555 24 348 14 332 11 340 59 l6 38 102 6 c56 4 172 10 257 13
85 4 157 8 159 10 2 2 34 4 71 4 l66 0 12 -287z"/>
<path d="M2498 2462 c-45 -3 -48 -5 -48 -30 0 -53 -2 -53 -241 -64 -123 -6
-224 -11 -225 -12 -1 -1 34 -700 35 -705 2 -6 260 7 271 14 6 3 10 16 10 28 0
46 4 47 291 62 151 8 294 15 318 15 l44 0 -7 137 c-4 75 -8 138 -9 139 -1 0
-119 -5 -262 -12 -143 -7 -272 -13 -286 -13 -23 -1 -27 -6 -33 -40 -5 -33 -10
-39 -38 -45 -17 -3 -33 -4 -35 -2 -2 2 -5 39 -6 82 l-2 79 55 5 c53 5 55 6 63
41 7 32 13 37 45 43 20 3 59 6 85 6 l48 0 -7 133 c-4 72 -9 134 -13 137 -3 3
-27 4 -53 2z"/>
<path d="M1515 2338 c-93 -4 -194 -11 -222 -14 l-53 -5 0 -67 c0 -37 3 -98 7
-136 l6 -68 164 7 163 7 0 -81 c0 -79 -1 -81 -24 -81 -73 0 -651 -32 -655 -36
-9 -8 3 -264 12 -269 8 -4 949 44 954 49 6 6 -12 476 -24 629 l-6 77 -76 -2
c-42 0 -152 -5 -246 -10z"/>
</g>
</svg>
